Coordinates
version=1
nRows=14
nColumns=33
inDegrees=yes

Units are S.I. units (second, meters, Newtons, ...)
Angles are in degrees.

endheader
time	ground_thorax_rot_x	ground_thorax_rot_y	ground_thorax_rot_z	ground_thorax_tx	ground_thorax_ty	ground_thorax_tz	clav_prot_r	clav_elev_r	scapula_abduction_r	scapula_elevation_r	scapula_upward_rot_r	scapula_winging_r	shoulder_elv_r	plane_of_elev_r	axial_rot_r	elbow_flexion_r	pro_sup_r	wrist_flex_r	wrist_dev_r	clav_prot_l	clav_elev_l	scapula_abduction_l	scapula_elevation_l	scapula_upward_rot_l	scapula_winging_l	shoulder_elv_l	plane_of_elev_l	axial_rot_l	elbow_flexion_l	pro_sup_l	wrist_flex_l	wrist_dev_l
      8.70000000	     30.85747381	     27.62033492	     37.22672797	    -59.43484030	    810.29942767	    -43.18328826	     12.86621343	     34.97271164	     26.66034312	     45.00000000	    -45.00000000	  -2247.95390242	  -4246.88333173	     21.01130111	   -157.48109199	      0.44683408	    166.23664798	     13.67689949	     14.07899393	     -9.26683520	    -45.00000000	    -37.72846073	     45.00000000	    -45.00000000	  -1335.61043518	    797.56093957	     24.48358924	     23.28488030	   1789.81035060	    403.95511331	     13.40777890	    -17.48671029
      8.71000000	     30.88172853	     27.39684964	     37.02699142	    -61.46576193	    812.11075634	    -43.47229383	     12.87855551	     34.89666926	     26.65687110	     45.00000000	    -45.00000000	  -2248.04065883	  -4246.82818445	     21.03208195	   -157.62803822	      0.34220451	    165.85862503	     13.72512334	     14.14450965	     -9.09154271	    -45.00000000	    -37.84879559	     45.00000000	    -45.00000000	  -1335.52193407	    797.66847533	     24.53419422	     23.39771002	   1789.83770902	    403.71639386	     13.44326771	    -17.55993459
      8.72000000	     30.87615722	     27.21735432	     36.90646698	    -63.41267138	    813.93259439	    -43.74273627	     12.89512374	     34.86594759	     26.70609496	     45.00000000	    -45.00000000	  -2248.16445628	  -4246.79326688	     21.05238855	   -157.75376099	      0.31919480	    165.44418613	     13.75406732	     14.17223453	     -8.99441474	    -45.00000000	    -37.95884986	     45.00000000	    -45.00000000	  -1335.46820139	    797.77784585	     24.55188094	     23.49309371	   1789.87734771	    403.50019851	     13.45863430	    -17.63898185
      8.73000000	     30.98251156	     27.05818630	     36.70059926	    -65.27918533	    815.76789665	    -43.99460262	     12.87904832	     34.83777300	     26.74475755	     45.00000000	    -45.00000000	  -2248.30449371	  -4246.79440485	     21.05490931	   -157.86995067	      0.24663781	    165.00238095	     13.79742290	     14.21914488	     -8.83014782	    -45.00000000	    -38.05598360	     45.00000000	    -45.00000000	  -1335.25784889	    797.88866465	     24.54698381	     23.58750962	   1789.90067080	    403.31157477	     13.49394373	    -17.75589487
      8.74000000	     30.98791761	     26.88690709	     36.52129406	    -67.05097010	    817.60389650	    -44.22692838	     12.99322975	     34.74078834	     26.67903400	     45.00000000	    -45.00000000	  -2248.38025660	  -4246.68411715	     21.09064730	   -158.05476308	      0.13586348	    164.49252711	     13.80578001	     14.26188896	     -8.82802109	    -45.00000000	    -38.18533650	     45.00000000	    -45.00000000	  -1335.35448473	    798.03880548	     24.54584770	     23.74464548	   1789.92358250	    403.13825450	     13.49310671	    -17.81618845
      8.75000000	     31.03031575	     26.66451555	     36.35917368	    -68.73882598	    819.44888171	    -44.44318764	     12.88123280	     34.78290370	     26.81169588	     45.00000000	    -45.00000000	  -2248.48948039	  -4246.74587478	     21.12822128	   -158.17401684	      0.20656482	    163.99542857	     13.79392427	     14.30387088	     -8.51879611	    -45.00000000	    -38.38338317	     45.00000000	    -45.00000000	  -1335.12547528	    798.03442932	     24.64177611	     23.83249277	   1789.93624458	    402.97668709	     13.53560402	    -17.96860987
      8.76000000	     31.15864251	     26.38569884	     36.07222363	    -70.33402386	    821.29267720	    -44.64449511	     12.89946454	     34.71658984	     26.92206139	     45.00000000	    -45.00000000	  -2248.53802474	  -4246.73985686	     21.20314445	   -158.25665938	      0.15368876	    163.50110325	     13.76698469	     14.39880259	     -8.41501194	    -45.00000000	    -38.38070923	     45.00000000	    -45.00000000	  -1335.06423074	    798.15512700	     24.72458793	     23.97072000	   1789.89963703	    402.81434471	     13.62800678	    -18.11662384
      8.77000000	     31.05300356	     26.40085408	     36.08794185	    -71.84422535	    823.13804581	    -44.83337543	     12.95008384	     34.60708358	     26.75106608	     45.00000000	    -45.00000000	  -2248.61067016	  -4246.62745549	     21.18733230	   -158.42408259	     -0.00136649	    162.89747149	     13.76989755	     14.40556080	     -8.21926441	    -45.00000000	    -38.62783087	     45.00000000	    -45.00000000	  -1335.00130566	    798.27176809	     24.68344729	     24.02352111	   1789.92402835	    402.60785387	     13.59444963	    -18.11935676
      8.78000000	     31.07934950	     26.29187792	     35.94402226	    -73.26742202	    824.97896626	    -45.01020267	     12.95606001	     34.60941890	     26.79298057	     45.00000000	    -45.00000000	  -2248.73278378	  -4246.64151155	     21.21147417	   -158.60512395	     -0.05759840	    162.28769677	     13.74528931	     14.44093749	     -8.11562693	    -45.00000000	    -38.75804496	     45.00000000	    -45.00000000	  -1334.92795280	    798.35514487	     24.71158129	     24.15351214	   1789.94711991	    402.34953643	     13.63255007	    -18.21277861
      8.79000000	     31.09884605	     26.19494024	     35.80976383	    -74.60850906	    826.81334202	    -45.17468235	     12.96580399	     34.52001538	     26.74757462	     45.00000000	    -45.00000000	  -2248.79774208	  -4246.56708691	     21.24376082	   -158.70949591	     -0.19450597	    161.65996626	     13.72288905	     14.48856387	     -7.91078397	    -45.00000000	    -38.89649884	     45.00000000	    -45.00000000	  -1334.84896602	    798.43528169	     24.74746063	     24.24342051	   1789.92066483	    402.03992817	     13.68543873	    -18.25898314
      8.80000000	     31.14021579	     26.04623743	     35.65782332	    -75.87127190	    828.64022543	    -45.32571452	     12.99527597	     34.50010798	     26.80326031	     45.00000000	    -45.00000000	  -2248.87034097	  -4246.55670197	     21.29672893	   -158.95158225	     -0.26488215	    161.03024214	     13.67555522	     14.54376195	     -7.83388501	    -45.00000000	    -38.99402257	     45.00000000	    -45.00000000	  -1334.79130449	    798.51532600	     24.77377051	     24.35627352	   1789.92372219	    401.66830135	     13.74437580	    -18.31961961
      8.81000000	     31.19774908	     25.90274871	     35.49355082	    -77.06134138	    830.45745199	    -45.46126558	     12.99051913	     34.51061597	     26.93075585	     45.00000000	    -45.00000000	  -2248.97096756	  -4246.59581761	     21.33277180	   -159.19483291	     -0.31316628	    160.45378173	     13.63987157	     14.58771374	     -7.72391011	    -45.00000000	    -39.10345229	     45.00000000	    -45.00000000	  -1334.70719561	    798.59019374	     24.79841645	     24.53210165	   1789.92178651	    401.25994180	     13.80960196	    -18.38624367
      8.82000000	     31.23206106	     25.77818952	     35.35196198	    -78.18256151	    832.26239029	    -45.57878913	     12.98456024	     34.46343187	     27.00033599	     45.00000000	    -45.00000000	  -2249.04104255	  -4246.59485149	     21.35340089	   -159.39725932	     -0.39968226	    159.90985055	     13.60925945	     14.63209829	     -7.57252301	    -45.00000000	    -39.22202947	     45.00000000	    -45.00000000	  -1334.63877601	    798.66677186	     24.84284312	     24.68940135	   1789.87978598	    400.82656065	     13.88572477	    -18.42249271
      8.83000000	     31.24401881	     25.70653173	     35.24144271	    -79.23932050	    834.05336885	    -45.67630620	     12.98172932	     34.41005970	     26.99047795	     45.00000000	    -45.00000000	  -2249.10469320	  -4246.55457936	     21.39232481	   -159.66136092	     -0.51096411	    159.37315402	     13.58441631	     14.66614577	     -7.39820792	    -45.00000000	    -39.33391214	     45.00000000	    -45.00000000	  -1334.56207297	    798.73234958	     24.89933450	     24.80816634	   1789.85256767	    400.36208918	     13.95365186	    -18.44312035
